<svg width="112" height="112" viewBox="0 0 112 112" fill="none" xmlns="http://www.w3.org/2000/svg">
<mask id="mask0" mask-type="alpha" maskUnits="userSpaceOnUse" x="9" y="20" width="94" height="72">
<path d="M100.55 40.35L85 22.46C84.5456 21.7842 83.9811 21.1893 83.33 20.7L80.33 45.27C81.1894 45.628 81.9431 46.1993 82.52 46.93C83.1927 47.7769 83.5983 48.8047 83.6851 49.8828C83.7718 50.9609 83.5359 52.0404 83.0072 52.9839C82.4786 53.9274 81.6812 54.6924 80.7164 55.1813C79.7517 55.6703 78.6633 55.8611 77.5898 55.7296C76.5163 55.598 75.5062 55.15 74.688 54.4427C73.8699 53.7353 73.2808 52.8004 72.9956 51.7572C72.7103 50.7139 72.742 49.6094 73.0865 48.5841C73.431 47.5589 74.0727 46.6594 74.93 46C75.6653 45.4292 76.5315 45.0511 77.45 44.9L80.45 20.44C79.586 20.7784 78.79 21.2695 78.1 21.89L59.47 36.2L65.94 67.32C66.0211 67.6455 66.1995 67.9386 66.4514 68.1601C66.7033 68.3817 67.0168 68.5212 67.35 68.56L75.98 69.56L84.6 70.56C84.9334 70.5984 85.2707 70.536 85.5683 70.381C85.866 70.2259 86.1104 69.9852 86.27 69.69L95.93 50.03C97.09 47.61 100.55 40.35 100.55 40.35Z" fill="url(#paint0_linear)"/>
<path d="M58.57 46.55L54.45 47.97L51.82 69.46L62.6 65.75L58.57 46.55Z" fill="url(#paint1_linear)"/>
<path d="M98.69 50.94L102.35 53.32L99.63 74.79L90.12 68.58L98.69 50.94Z" fill="url(#paint2_linear)"/>
<path d="M64.13 79.57C50.7 83.5 44.67 81.07 45.05 69.24C45.13 66.82 44.05 64.37 41.73 64.9C38.41 65.65 33.45 69.08 33.45 69.08C38.8018 65.8903 43.493 61.7048 47.27 56.75C49.65 53.42 53.41 41.21 46.51 37.75C38.68 33.82 29.7 39.05 26.12 40.75C22.92 42.26 13.12 47.28 16.38 41.49L9.83999 43.72C9.47369 45.0747 9.61634 46.5166 10.241 47.7732C10.8656 49.0298 11.9289 50.0141 13.23 50.54C19.58 53.05 30.07 45.46 33.83 44.54C37.59 43.62 46.88 41.76 41.59 52.33C39.97 55.55 36.4 60.49 28.42 64.33L30 51.92L23.14 54.28L21 71.58C19.69 82 17.7 83.16 12.86 84.69L12 91.55L12.21 91.48L17.54 89.64C25.29 86.71 26.71 78.84 26.87 76.9L37.27 73.36C37.27 73.36 37 89.12 53.91 88.53C56.6015 88.4156 59.2608 87.8999 61.8 87L67.8 84.94L64.09 79.62" fill="url(#paint3_linear)"/>
<path d="M71.08 71.9L66.42 78.12L73.51 88.27L83.02 79.66L79.86 72.95L71.08 71.9Z" fill="url(#paint4_linear)"/>
</mask>
<g mask="url(#mask0)">
<path d="M112 0H0V112H112V0Z" fill="url(#paint5_linear)"/>
</g>
<defs>
<linearGradient id="paint0_linear" x1="79.093" y1="86.9084" x2="79.093" y2="33.868" gradientUnits="userSpaceOnUse">
<stop stop-color="#D8000F"/>
<stop offset="0.18" stop-color="#DF230B"/>
<stop offset="0.4" stop-color="#E64906"/>
<stop offset="0.52" stop-color="#E95704"/>
<stop offset="0.69" stop-color="#E9740C"/>
<stop offset="1" stop-color="#EAAD1C"/>
</linearGradient>
<linearGradient id="paint1_linear" x1="668.544" y1="2675.24" x2="668.544" y2="1130.88" gradientUnits="userSpaceOnUse">
<stop stop-color="#D8000F"/>
<stop offset="0.18" stop-color="#DF230B"/>
<stop offset="0.4" stop-color="#E64906"/>
<stop offset="0.52" stop-color="#E95704"/>
<stop offset="0.69" stop-color="#E9740C"/>
<stop offset="1" stop-color="#EAAD1C"/>
</linearGradient>
<linearGradient id="paint2_linear" x1="1267.01" y1="2787.49" x2="1267.01" y2="1179.76" gradientUnits="userSpaceOnUse">
<stop stop-color="#D8000F"/>
<stop offset="0.18" stop-color="#DF230B"/>
<stop offset="0.4" stop-color="#E64906"/>
<stop offset="0.52" stop-color="#E95704"/>
<stop offset="0.69" stop-color="#E9740C"/>
<stop offset="1" stop-color="#EAAD1C"/>
</linearGradient>
<linearGradient id="paint3_linear" x1="2263.3" y1="6373.51" x2="2263.3" y2="2650.4" gradientUnits="userSpaceOnUse">
<stop stop-color="#D8000F"/>
<stop offset="0.18" stop-color="#DF230B"/>
<stop offset="0.4" stop-color="#E64906"/>
<stop offset="0.52" stop-color="#E95704"/>
<stop offset="0.69" stop-color="#E9740C"/>
<stop offset="1" stop-color="#EAAD1C"/>
</linearGradient>
<linearGradient id="paint4_linear" x1="1306.77" y1="1950.19" x2="1306.77" y2="846.692" gradientUnits="userSpaceOnUse">
<stop stop-color="#D8000F"/>
<stop offset="0.18" stop-color="#DF230B"/>
<stop offset="0.4" stop-color="#E64906"/>
<stop offset="0.52" stop-color="#E95704"/>
<stop offset="0.69" stop-color="#E9740C"/>
<stop offset="1" stop-color="#EAAD1C"/>
</linearGradient>
<linearGradient id="paint5_linear" x1="53.5" y1="148.5" x2="53.5" y2="30" gradientUnits="userSpaceOnUse">
<stop stop-color="#D8000F"/>
<stop offset="0.18" stop-color="#DF230B"/>
<stop offset="0.4" stop-color="#E64906"/>
<stop offset="0.52" stop-color="#E95704"/>
<stop offset="0.69" stop-color="#E9740C"/>
<stop offset="1" stop-color="#EAAD1C"/>
</linearGradient>
</defs>
</svg>
