<svg xmlns="http://www.w3.org/2000/svg" viewBox="0 0 158.77 96"><defs><style>.cls-1{fill:#fff;}</style></defs><title>logo-virtualred-white</title><g id="Layer_2" data-name="Layer 2"><g id="レイヤー_1" data-name="レイヤー 1"><polygon class="cls-1" points="154.87 32.59 158.77 35.13 155.87 58.07 145.7 51.44 154.87 32.59"/><path class="cls-1" d="M156.85,21.27,140.27,2.15A7.56,7.56,0,0,0,138.48.27l-3.17,26.25a5.83,5.83,0,1,1-6.82,9,5.82,5.82,0,0,1,3.68-9.35L135.31,0a8.15,8.15,0,0,0-2.51,1.55L112.94,16.83h0l6.92,33.26h0a1.78,1.78,0,0,0,1.51,1.33l9.22,1.11,9.21,1.11a1.79,1.79,0,0,0,1.79-.93l10.32-21C153.15,29,156.85,21.27,156.85,21.27Z"/><polygon class="cls-1" points="111.99 27.89 107.58 29.41 104.77 52.38 116.29 48.41 111.99 27.89"/><path class="cls-1" d="M57.49,91.09,122.8,68.54l-5-5.29-50,17.24C48.63,88,37.35,87,37.83,72.15c.08-2.58-1-5.19-3.55-4.63-3.55.8-8.85,4.46-8.85,4.46A51.74,51.74,0,0,0,40.2,58.8c2.54-3.55,6.57-16.6-.81-20.31-8.36-4.2-18,1.39-21.8,3.2-3.41,1.62-13.93,7-10.4.8l-7,2.4a6.12,6.12,0,0,0,3.62,7.28c6.78,2.68,18-5.43,22-6.45s14-3,8.29,8.32c-1.73,3.45-5.54,8.72-14.07,12.83l1.63-13.23-7.33,2.53h0L12.09,74.66C10.73,85.77,8.6,87,3.42,88.67h0L2.52,96l.23-.08,5.7-2c8.28-3.14,9.8-11.54,10-13.62l11.12-3.78h0s1.4,16.84,19.52,16.21A29.3,29.3,0,0,0,57.49,91.09Z"/><polygon class="cls-1" points="125.35 54.99 120.38 61.63 128.39 70.09 138.12 63.28 134.74 56.11 125.35 54.99"/><path class="cls-1" d="M43.76,33.52,46,32.78l2.62,5.56L50,31.47l2.46-.81-2.16,9.62-2.6.85Z"/><path class="cls-1" d="M53,30.47l2.08-.68L56,38.4l-2.07.68Z"/><path class="cls-1" d="M59.48,34.22l-1.14.38.3,2.92-2.08.68-.87-8.61,3.66-1.21a2.55,2.55,0,0,1,3.37,1.49,3.06,3.06,0,0,1-1.2,3.55l1.9,2.52-2.29.76Zm1.16-3.43a.87.87,0,0,0-1.15-.52L58,30.78l.2,1.93,1.6-.52C60.49,31.94,60.84,31.4,60.64,30.79Z"/><path class="cls-1" d="M65.11,28.48l-2.25.75-.18-1.94,6.56-2.17.2,1.94-2.26.74.69,6.68-2.07.68Z"/><path class="cls-1" d="M70.48,30.6a5.06,5.06,0,0,1-.17-.93l-.48-4.74,2.1-.7.49,4.84a2.88,2.88,0,0,0,.12.6,1.36,1.36,0,0,0,1.89.8,1.89,1.89,0,0,0,1.26-2.23l-.52-5.07,2.11-.7.51,5.12c.22,2.09-.33,3.89-2.9,4.73C72.59,33.08,71,32.29,70.48,30.6Z"/><path class="cls-1" d="M84.07,27.79l-3.32,1.1-.29,1.44-2.34.77,2.14-9.61,2.6-.86,3.91,7.62-2.14.7Zm-3-1,2.24-.73-1.49-3.2Z"/><path class="cls-1" d="M86.5,19.43l2.07-.68.68,6.68,3.23-1.06.2,1.93-5.3,1.75Z"/><path class="cls-1" d="M96.13,22.64,95,31.88h-.06c-1.25.38-2.9.84-4.7,1.52a24.42,24.42,0,0,0-16,25.33,16.92,16.92,0,0,0,1.25,4.89l.1.14L57.24,70.11s-1.08.35-4.94,1.69c-3.86.2-1.87-5.36-1.87-5.36l17.44-6s5.2-8.37,1.12-14c-2.68-3.71-6.79-3.2-9.4-2.78,0,0-1.38.36-1.61.48-16.46,7.44-15.07,28.6-15.07,28.6,0,4.06,4,8,13.24,4.77l8.44-2.91s18-6.18,21.84-7.54l4.24-6L90.1,65.8,92,65.16,94,64.44l1.51-.53L98.22,63l5.25-42.9ZM54.24,54.3s4-4.27,8.41-3.67c1.54.3.22,5.45-.16,5.56L51.44,60C52.35,57.13,52.78,56.09,54.24,54.3Zm36.89,3.05a6.1,6.1,0,0,1-1,1.12c-3.33,2.72-8.16.57-8.51-3.93-.82-6,3.9-10.85,3.9-10.85a16.83,16.83,0,0,1,7.71-4.06Z"/></g></g></svg>