<svg width="159" height="96" viewBox="0 0 159 96" fill="none" xmlns="http://www.w3.org/2000/svg">
<g clip-path="url(#clip0)">
<path d="M154.87 32.59L158.77 35.13L155.87 58.07L145.7 51.44L154.87 32.59Z" fill="white"/>
<path d="M156.85 21.27L140.27 2.15C139.786 1.42482 139.181 0.788775 138.48 0.27L135.31 26.52C136.13 26.8635 136.861 27.3902 137.447 28.0597C138.032 28.7292 138.457 29.5237 138.688 30.3825C138.919 31.2413 138.95 32.1416 138.78 33.0145C138.61 33.8874 138.242 34.7097 137.705 35.4186C137.167 36.1274 136.475 36.7039 135.681 37.1041C134.887 37.5042 134.011 37.7173 133.122 37.7271C132.233 37.7369 131.353 37.5431 130.55 37.1606C129.747 36.778 129.043 36.2168 128.49 35.52C127.862 34.7214 127.453 33.7723 127.306 32.7669C127.158 31.7615 127.276 30.735 127.648 29.7895C128.02 28.8439 128.634 28.0123 129.427 27.3773C130.22 26.7423 131.166 26.326 132.17 26.17L135.31 0C134.386 0.359682 133.535 0.884952 132.8 1.55L112.94 16.83L119.86 50.09C119.948 50.4381 120.14 50.7515 120.409 50.9888C120.679 51.2262 121.014 51.3765 121.37 51.42L130.59 52.53L139.8 53.64C140.157 53.6829 140.519 53.6171 140.838 53.4512C141.158 53.2853 141.42 53.027 141.59 52.71L151.91 31.71C153.15 29 156.85 21.27 156.85 21.27Z" fill="white"/>
<path d="M111.99 27.89L107.58 29.41L104.77 52.38L116.29 48.41L111.99 27.89Z" fill="white"/>
<path d="M125.35 54.99L120.38 61.63L128.39 70.09L138.12 63.28L134.74 56.11L125.35 54.99Z" fill="white"/>
<path d="M96.13 22.64L95 31.88H94.94C93.69 32.26 92.04 32.72 90.24 33.4C85.1383 35.245 80.7963 38.7364 77.8991 43.323C75.0019 47.9097 73.7145 53.3305 74.24 58.73C74.4098 60.4133 74.8312 62.0617 75.49 63.62L75.59 63.76L57.24 70.11C57.24 70.11 56.16 70.46 52.3 71.8C48.44 72 50.43 66.44 50.43 66.44L67.87 60.44C67.87 60.44 73.07 52.07 68.99 46.44C66.31 42.73 62.2 43.24 59.59 43.66C59.59 43.66 58.21 44.02 57.98 44.14C41.52 51.58 42.91 72.74 42.91 72.74C42.91 76.8 46.91 80.74 56.15 77.51L64.59 74.6C64.59 74.6 82.59 68.42 86.43 67.06L90.67 61.06L90.1 65.8L92 65.16L94 64.44L95.51 63.91L98.22 63L103.47 20.1L96.13 22.64ZM54.24 54.3C54.24 54.3 58.24 50.03 62.65 50.63C64.19 50.93 62.87 56.08 62.49 56.19L51.44 60C52.35 57.13 52.78 56.09 54.24 54.3ZM91.13 57.35C90.8441 57.7631 90.5082 58.1393 90.13 58.47C86.8 61.19 81.97 59.04 81.62 54.54C80.8 48.54 85.52 43.69 85.52 43.69C87.689 41.6833 90.3482 40.283 93.23 39.63L91.13 57.35Z" fill="white"/>
<path d="M57.49 91.09L122.8 68.54L117.8 63.25L67.8 80.49C48.63 88 37.35 87 37.83 72.15C37.91 69.57 36.83 66.96 34.28 67.52C30.73 68.32 25.43 71.98 25.43 71.98C31.1557 68.5782 36.1708 64.103 40.2 58.8C42.74 55.25 46.77 42.2 39.39 38.49C31.03 34.29 21.39 39.88 17.59 41.69C14.18 43.31 3.66 48.69 7.19 42.49L0.189998 44.89C-0.202536 46.3362 -0.0508137 47.8762 0.616403 49.218C1.28362 50.5598 2.41996 51.6102 3.81 52.17C10.59 54.85 21.81 46.74 25.81 45.72C29.81 44.7 39.81 42.72 34.1 54.04C32.37 57.49 28.56 62.76 20.03 66.87L21.66 53.64L14.33 56.17L12.09 74.66C10.73 85.77 8.6 87 3.42 88.67L2.52 96L2.75 95.92L8.45 93.92C16.73 90.78 18.25 82.38 18.45 80.3L29.57 76.52C29.57 76.52 30.97 93.36 49.09 92.73C51.9552 92.5974 54.7854 92.0449 57.49 91.09V91.09Z" fill="white"/>
<path d="M43.76 33.52L46 32.78L48.62 38.34L50 31.47L52.46 30.66L50.3 40.28L47.7 41.13L43.76 33.52Z" fill="white"/>
<path d="M53 30.47L55.08 29.79L56 38.4L53.93 39.08L53 30.47Z" fill="white"/>
<path d="M59.48 34.22L58.34 34.6L58.64 37.52L56.56 38.2L55.69 29.59L59.35 28.38C59.6683 28.2487 60.0099 28.1833 60.3542 28.1876C60.6985 28.192 61.0383 28.266 61.3532 28.4052C61.6681 28.5445 61.9516 28.746 62.1865 28.9978C62.4214 29.2495 62.6029 29.5462 62.72 29.87C62.9417 30.511 62.9442 31.2076 62.727 31.8502C62.5098 32.4928 62.0852 33.045 61.52 33.42L63.42 35.94L61.13 36.7L59.48 34.22ZM60.64 30.79C60.6012 30.6785 60.5401 30.576 60.4605 30.4888C60.3808 30.4017 60.2843 30.3316 60.1767 30.283C60.0691 30.2343 59.9527 30.2081 59.8347 30.2059C59.7166 30.2036 59.5994 30.2254 59.49 30.27L58 30.78L58.2 32.71L59.8 32.19C60.49 31.94 60.84 31.4 60.64 30.79V30.79Z" fill="white"/>
<path d="M65.11 28.48L62.86 29.23L62.68 27.29L69.24 25.12L69.44 27.06L67.18 27.8L67.87 34.48L65.8 35.16L65.11 28.48Z" fill="white"/>
<path d="M70.48 30.6C70.3944 30.296 70.3375 29.9846 70.31 29.67L69.83 24.93L71.93 24.23L72.42 29.07C72.4386 29.2737 72.4788 29.4748 72.54 29.67C72.6003 29.8549 72.6997 30.0248 72.8313 30.168C72.9628 30.3113 73.1236 30.4247 73.3028 30.5005C73.4819 30.5763 73.6752 30.6129 73.8697 30.6076C74.0642 30.6023 74.2552 30.5554 74.43 30.47C74.8816 30.3243 75.2619 30.0141 75.4954 29.601C75.7288 29.1878 75.7983 28.702 75.69 28.24L75.17 23.17L77.28 22.47L77.79 27.59C78.01 29.68 77.46 31.48 74.89 32.32C72.59 33.08 71 32.29 70.48 30.6Z" fill="white"/>
<path d="M84.07 27.79L80.75 28.89L80.46 30.33L78.12 31.1L80.26 21.49L82.86 20.63L86.77 28.25L84.63 28.95L84.07 27.79ZM81.07 26.79L83.31 26.06L81.82 22.86L81.07 26.79Z" fill="white"/>
<path d="M86.5 19.43L88.57 18.75L89.25 25.43L92.48 24.37L92.68 26.3L87.38 28.05L86.5 19.43Z" fill="white"/>
</g>
<defs>
<clipPath id="clip0">
<path d="M0 0H158.77V96H0V0Z" fill="white"/>
</clipPath>
</defs>
</svg>
